<?xml version="1.0" encoding="UTF-8" standalone="no"?>
<!DOCTYPE svg PUBLIC "-//W3C//DTD SVG 1.1//EN" "http://www.w3.org/Graphics/SVG/1.1/DTD/svg11.dtd">
<svg viewBox="0 0 120 60" xmlns="http://www.w3.org/2000/svg" fill-rule="evenodd" clip-rule="evenodd">
    <path d="M 28.95 35.251 Q 28.95 37.937 27.95 39.965 Q 26.949 41.993 25.237 43.349 Q 23.525 44.705 21.234 45.39 Q 18.943 46.075 16.336 46.075 Q 14.571 46.075 13.057 45.785 Q 11.543 45.495 10.384 45.087 Q 9.225 44.679 8.448 44.231 Q 7.672 43.784 7.329 43.441 Q 6.987 43.099 6.842 42.454 Q 6.697 41.808 6.697 40.597 Q 6.697 39.781 6.75 39.228 Q 6.802 38.674 6.921 38.332 Q 7.039 37.99 7.237 37.845 Q 7.435 37.7 7.698 37.7 Q 8.067 37.7 8.738 38.135 Q 9.41 38.569 10.463 39.096 Q 11.516 39.623 12.978 40.057 Q 14.44 40.492 16.362 40.492 Q 17.626 40.492 18.627 40.189 Q 19.628 39.886 20.326 39.333 Q 21.024 38.78 21.392 37.963 Q 21.761 37.147 21.761 36.146 Q 21.761 34.988 21.129 34.158 Q 20.497 33.328 19.483 32.683 Q 18.469 32.038 17.179 31.472 Q 15.888 30.906 14.519 30.274 Q 13.149 29.641 11.859 28.838 Q 10.568 28.035 9.555 26.916 Q 8.541 25.796 7.909 24.269 Q 7.277 22.742 7.277 20.608 Q 7.277 18.159 8.185 16.303 Q 9.094 14.446 10.634 13.221 Q 12.175 11.997 14.269 11.391 Q 16.362 10.785 18.706 10.785 Q 19.917 10.785 21.129 10.97 Q 22.34 11.154 23.394 11.47 Q 24.447 11.786 25.264 12.181 Q 26.08 12.576 26.343 12.84 Q 26.607 13.103 26.699 13.287 Q 26.791 13.472 26.857 13.774 Q 26.923 14.077 26.949 14.538 Q 26.975 14.999 26.975 15.684 Q 26.975 16.447 26.936 16.974 Q 26.896 17.501 26.804 17.843 Q 26.712 18.186 26.541 18.344 Q 26.37 18.502 26.08 18.502 Q 25.79 18.502 25.158 18.133 Q 24.526 17.764 23.604 17.33 Q 22.683 16.895 21.471 16.54 Q 20.26 16.184 18.811 16.184 Q 17.679 16.184 16.836 16.461 Q 15.994 16.737 15.427 17.224 Q 14.861 17.712 14.585 18.396 Q 14.308 19.081 14.308 19.845 Q 14.308 20.977 14.927 21.807 Q 15.546 22.636 16.586 23.281 Q 17.626 23.927 18.943 24.493 Q 20.26 25.059 21.629 25.691 Q 22.999 26.323 24.315 27.126 Q 25.632 27.93 26.659 29.049 Q 27.686 30.168 28.318 31.682 Q 28.95 33.197 28.95 35.251 Z M 107.903 44.442 Q 107.903 44.732 107.759 44.955 Q 107.614 45.179 107.206 45.324 Q 106.797 45.469 106.086 45.548 Q 105.375 45.627 104.295 45.627 Q 102.584 45.627 101.833 45.495 Q 101.083 45.364 100.753 45.1 Q 100.424 44.837 100.24 44.468 L 89.943 28.298 L 89.943 44.468 Q 89.943 44.758 89.785 44.969 Q 89.627 45.179 89.232 45.324 Q 88.837 45.469 88.178 45.548 Q 87.52 45.627 86.493 45.627 Q 85.492 45.627 84.82 45.548 Q 84.149 45.469 83.754 45.324 Q 83.359 45.179 83.188 44.969 Q 83.016 44.758 83.016 44.468 L 83.016 12.365 Q 83.016 12.076 83.188 11.865 Q 83.359 11.654 83.754 11.523 Q 84.149 11.391 84.82 11.312 Q 85.492 11.233 86.493 11.233 Q 87.52 11.233 88.178 11.312 Q 88.837 11.391 89.232 11.523 Q 89.627 11.654 89.785 11.865 Q 89.943 12.076 89.943 12.365 L 89.943 26.876 L 99.924 12.392 Q 100.108 12.049 100.371 11.826 Q 100.635 11.602 101.056 11.47 Q 101.478 11.338 102.136 11.286 Q 102.794 11.233 103.821 11.233 Q 104.875 11.233 105.56 11.312 Q 106.244 11.391 106.652 11.536 Q 107.061 11.681 107.219 11.891 Q 107.377 12.102 107.377 12.365 Q 107.377 12.813 107.14 13.287 Q 106.903 13.761 106.244 14.788 L 96.895 27.034 L 107.087 42.44 Q 107.666 43.52 107.785 43.876 Q 107.903 44.231 107.903 44.442 Z" transform="matrix(1.1089229583740234, 0, 0, 1.2422410249710083, -1.64748215675354, -5.506570816040039)" style="fill: rgb(255, 62, 0);"/>
    <path d="M60 3c14.902 0 27 12.098 27 27S74.902 57 60 57 33 44.902 33 30 45.098 3 60 3zm0 35.883L70.467 21.51a3.1 3.1 0 015.311 3.199L62.655 46.49a3.1 3.1 0 01-5.31 0L44.222 24.709a3.1 3.1 0 015.311-3.199L60 38.883z" fill="#ff3e00">
        <animateTransform attributeType="xml" attributeName="transform" type="rotate" from="0 60 30" to="360 60 30" dur="8s" additive="sum" repeatCount="indefinite" />    
    </path>
</svg>